<?xml version="1.0" encoding="utf-8"?>
<!-- Generator: Adobe Illustrator 25.2.1, SVG Export Plug-In . SVG Version: 6.00 Build 0)  -->
<svg version="1.1" id="Слой_1" xmlns="http://www.w3.org/2000/svg" xmlns:xlink="http://www.w3.org/1999/xlink" x="0px" y="0px"
	 viewBox="0 0 32 26" style="enable-background:new 0 0 32 26;" xml:space="preserve">
<style type="text/css">
	.st0{fill:#FFFFFF;}
</style>
<path class="st0" d="M29.7,5.5c0,0-11.3-5-11.3-5C17.6,0.2,16.8,0,16,0s-1.6,0.2-2.4,0.5c0,0-11.3,5-11.3,5C0.9,6.1,0,7.5,0,9.1
	c0,1.6,0.9,3,2.3,3.6L5,13.9v8.2C5,24.3,6.7,26,8.8,26h14.5c2.1,0,3.8-1.7,3.8-3.9v-3.5c0-0.7-0.6-1.3-1.2-1.3s-1.2,0.6-1.2,1.3v3.5
	c0,0.7-0.6,1.3-1.2,1.3H8.8c-0.7,0-1.2-0.6-1.2-1.3V15c0,0,6.1,2.7,6.1,2.7c0.8,0.3,1.6,0.5,2.4,0.5c0.8,0,1.6-0.2,2.4-0.5
	c0,0,11.3-5,11.3-5c1.4-0.6,2.3-2,2.3-3.6C32,7.5,31.1,6.1,29.7,5.5z M28.7,10.3c0,0-11.3,5-11.3,5c-0.5,0.2-0.9,0.3-1.4,0.3
	c-0.5,0-1-0.1-1.4-0.3c-1.1-0.5-11.3-5-11.3-5c-0.5-0.2-0.8-0.7-0.8-1.2c0-0.5,0.3-1,0.8-1.2c0,0,11.3-5,11.3-5
	C15,2.7,15.5,2.6,16,2.6s1,0.1,1.4,0.3c0,0,11.3,5,11.3,5c0.5,0.2,0.8,0.7,0.8,1.2C29.5,9.6,29.2,10.1,28.7,10.3z"/>
<path d="M30.8,15.2c-0.7,0-1.2,0.6-1.2,1.3v5.6c0,0.7,0.6,1.3,1.2,1.3s1.2-0.6,1.2-1.3v-5.6C32,15.7,31.4,15.2,30.8,15.2z"/>
</svg>
